<svg xmlns="http://www.w3.org/2000/svg" width="49" height="40" fill="none"><path fill="#fff" fill-rule="evenodd" d="M17 0a1 1 0 0 1 1 1v7.396c0 .223.27.335.427.177L26.414.586A2 2 0 0 1 27.828 0h8.758a1 1 0 0 1 .707.293l3 3a1 1 0 0 1 0 1.414l-3.866 3.866a.25.25 0 0 0 .176.427h7.983a1 1 0 0 1 .707.293l3 3a1 1 0 0 1 0 1.414l-3.94 3.94a.5.5 0 0 0 0 .707l3.233 3.232a4.828 4.828 0 0 1 0 6.828l-11 11a2 2 0 0 1-1.414.586H32a1 1 0 0 1-1-1v-7.396a.25.25 0 0 0-.427-.177l-7.987 7.987a2 2 0 0 1-1.414.586h-8.758a1 1 0 0 1-.707-.293l-3-3a1 1 0 0 1 0-1.414l3.866-3.866a.25.25 0 0 0-.177-.427H4.414a1 1 0 0 1-.707-.293l-3-3a1 1 0 0 1 0-1.414l3.94-3.94a.5.5 0 0 0 0-.707l-3.233-3.232a4.829 4.829 0 0 1 0-6.828l11-11A2 2 0 0 1 13.828 0H17Zm3.071 9a5.002 5.002 0 0 0-3.536 1.465L5.854 21.146a.5.5 0 0 0 .353.854h14.586a.5.5 0 0 1 .354.854l-7.293 7.293a.5.5 0 0 0 .353.853h14.722a5.002 5.002 0 0 0 3.536-1.465l10.681-10.681a.5.5 0 0 0-.272-.848L42.793 18H28.207a.5.5 0 0 1-.354-.854l7.294-7.292A.5.5 0 0 0 34.793 9H20.071Z" clip-rule="evenodd"/></svg>