<svg xmlns="http://www.w3.org/2000/svg" width="43" height="49" fill="none"><path fill="#fff" fill-rule="evenodd" d="M6.812 2.983V0H0v27.483C0 39.365 9.626 49 21.5 49S43 39.366 43 27.483V0h-6.812v2.983H24.693V0h-6.812v2.983H6.811Zm11.07 38.75C11.578 40.135 6.9 34.46 6.812 27.677a14.47 14.47 0 0 1 9.966 8.535 14.5 14.5 0 0 1 1.102 5.52Zm.576-15.041a21.3 21.3 0 0 1 2.83 3.505 21.3 21.3 0 0 1 6.33-6.336 21.3 21.3 0 0 1-6.33-6.336 21.3 21.3 0 0 1-6.332 6.336 21.3 21.3 0 0 1 3.502 2.831m17.73.888c-.046 6.978-4.949 12.802-11.495 14.254v-.078a14.5 14.5 0 0 1 4.24-10.243 14.5 14.5 0 0 1 7.255-3.933M17.365 9.8a14.5 14.5 0 0 1-3.723 6.409 14.5 14.5 0 0 1-6.83 3.836V9.8zm18.823 10.342V9.8H25.209a14.5 14.5 0 0 0 3.724 6.409 14.47 14.47 0 0 0 7.255 3.933" clip-rule="evenodd"/></svg>