<?xml version="1.0" standalone="no"?>
<!DOCTYPE svg PUBLIC "-//W3C//DTD SVG 20010904//EN"
 "http://www.w3.org/TR/2001/REC-SVG-20010904/DTD/svg10.dtd">
<svg version="1.0" xmlns="http://www.w3.org/2000/svg"
 width="500.000000pt" height="500.000000pt" viewBox="0 0 500.000000 500.000000"
 preserveAspectRatio="xMidYMid meet">

<g transform="translate(0.000000,500.000000) scale(0.100000,-0.100000)"
fill="#000000" stroke="none">
<path d="M2330 3915 c-8 -2 -49 -9 -90 -15 -169 -28 -366 -113 -508 -219 -237
-180 -399 -446 -469 -771 -26 -121 -26 -468 0 -590 102 -485 397 -827 833
-963 236 -74 562 -74 798 0 560 175 904 721 856 1355 -13 159 -26 234 -66 357
-141 433 -460 726 -901 827 -62 14 -412 29 -453 19z m375 -290 c260 -55 484
-229 602 -468 93 -189 118 -308 117 -562 -1 -171 -3 -200 -26 -286 -57 -212
-125 -336 -258 -469 -98 -98 -167 -146 -280 -193 -110 -45 -178 -59 -325 -64
-292 -11 -490 62 -681 252 -183 180 -276 410 -291 716 -25 516 226 924 647
1053 152 47 334 54 495 21z"/>
<path d="M3715 1702 c-201 -94 -142 -391 78 -392 158 0 255 154 186 297 -45
92 -172 138 -264 95z"/>
</g>
</svg>
